<?xml version="1.0" encoding="UTF-8" standalone="no"?>
<!-- Created with Inkscape (http://www.inkscape.org/) -->

<svg
   width="255.99998"
   height="256.00281"
   viewBox="0 0 67.733327 67.734079"
   version="1.1"
   id="svg5"
   inkscape:version="1.1 (c68e22c387, 2021-05-23)"
   sodipodi:docname="Notes.svg"
   xmlns:inkscape="http://www.inkscape.org/namespaces/inkscape"
   xmlns:sodipodi="http://sodipodi.sourceforge.net/DTD/sodipodi-0.dtd"
   xmlns="http://www.w3.org/2000/svg"
   xmlns:svg="http://www.w3.org/2000/svg">
  <sodipodi:namedview
     id="namedview7"
     pagecolor="#222222"
     bordercolor="#666666"
     borderopacity="1.0"
     inkscape:pageshadow="2"
     inkscape:pageopacity="0"
     inkscape:pagecheckerboard="0"
     inkscape:document-units="mm"
     showgrid="false"
     units="px"
     inkscape:showpageshadow="false"
     borderlayer="true"
     inkscape:zoom="1.28"
     inkscape:cx="-89.453125"
     inkscape:cy="117.57813"
     inkscape:window-width="5120"
     inkscape:window-height="1377"
     inkscape:window-x="1912"
     inkscape:window-y="-8"
     inkscape:window-maximized="1"
     inkscape:current-layer="layer1" />
  <defs
     id="defs2">
    <pattern
       id="EMFhbasepattern"
       patternUnits="userSpaceOnUse"
       width="6"
       height="6"
       x="0"
       y="0" />
  </defs>
  <g
     inkscape:label="Layer 1"
     inkscape:groupmode="layer"
     id="layer1"
     transform="translate(-238.46691,-112.29666)">
    <text
       xml:space="preserve"
       style="font-weight:600;font-size:10.5833px;line-height:1.25;font-family:Nunito;-inkscape-font-specification:'Nunito Semi-Bold';stroke-width:0.264583"
       x="45.69231"
       y="104.59255"
       id="text1574"><tspan
         sodipodi:role="line"
         id="tspan1572"
         style="stroke-width:0.264583"
         x="45.69231"
         y="104.59255" /></text>
    <path
       id="path4923"
       style="fill:#ed7e48;fill-opacity:1;stroke-width:4.72702;stroke-linecap:round;stroke-linejoin:bevel"
       d="M 128.00195 0 C 57.308498 0 0 57.309141 0 128.00195 C 0 198.69443 57.308498 256.00195 128.00195 256.00195 C 198.69435 256.00195 256 198.69443 256 128.00195 C 256 57.309141 198.69435 0 128.00195 0 z M 109.53516 74.046875 C 114.0813 74.032896 120.11751 74.053646 128.24609 74.076172 L 157.44727 74.15625 L 159.34766 74.802734 C 164.66889 76.613997 168.87546 80.72769 170.75781 85.960938 C 171.43646 87.847904 171.43942 87.920934 171.51758 103.74219 C 171.5943 119.21724 171.58055 119.6547 171.00977 120.58008 C 170.08688 122.07636 168.78958 122.74145 167.04688 122.61328 C 165.41185 122.49271 164.34901 121.8572 163.52148 120.50391 C 163.02599 119.69358 162.97492 118.50703 162.83984 104.32617 L 162.69336 89.023438 L 162.01367 87.710938 C 161.05851 85.870383 159.51178 84.362855 157.76953 83.574219 L 156.28125 82.900391 L 127.27734 82.900391 L 98.273438 82.900391 L 96.90625 83.533203 C 94.934962 84.444069 93.077254 86.422993 92.335938 88.404297 L 91.714844 90.064453 L 91.714844 129.97656 C 91.714844 169.22858 91.730413 169.9167 92.300781 171.45508 C 93.094558 173.57672 94.602848 175.25098 96.605469 176.23438 L 98.275391 177.05273 L 107.31055 177.19922 C 117.49437 177.36325 117.74495 177.41377 118.82227 179.52539 C 119.56789 180.98712 119.56338 182.1648 118.80664 183.64648 C 118.38167 184.47942 117.84955 184.98418 116.98438 185.37695 C 115.86881 185.88341 115.01584 185.92933 107.16406 185.91406 C 100.94378 185.89895 98.0435 185.78533 96.671875 185.49023 L 96.669922 185.49023 C 93.489276 184.80423 90.696222 183.22871 88.208984 180.72266 C 85.685205 178.17964 84.385401 175.93093 83.546875 172.65234 C 82.986862 170.46335 82.970703 169.27926 82.970703 129.97656 C 82.970703 90.673974 82.989924 89.48977 83.546875 87.300781 C 84.394774 83.985531 85.677876 81.772112 88.226562 79.226562 C 89.8281 77.626877 91.052147 76.711813 92.613281 75.943359 C 95.671637 74.437794 95.896717 74.088812 109.53516 74.046875 z M 104.08203 100.24805 L 127.41211 100.24805 C 153.42917 100.24858 152.01816 100.14032 153.43359 102.25977 C 154.82026 104.33552 154.00788 107.35193 151.75781 108.48242 C 150.81701 108.95486 149.04126 108.99251 127.27734 108.98828 L 103.8125 108.98438 L 102.67773 108.33203 C 99.686049 106.61688 99.75549 102.46683 102.80273 100.9043 L 104.08203 100.24805 z M 104.08203 117.73828 L 127.41211 117.73828 C 153.42917 117.73881 152.01816 117.62939 153.43359 119.74805 C 154.82026 121.8238 154.00788 124.84209 151.75781 125.97266 C 150.81701 126.4451 149.04126 126.48083 127.27734 126.47656 L 103.8125 126.47461 L 102.67773 125.82227 C 99.686049 124.10704 99.75549 119.95507 102.80273 118.39258 L 104.08203 117.73828 z M 169.9375 133.55859 C 178.38213 133.34392 184.97403 141.3606 182.78516 149.9043 C 182.53268 150.88943 181.99259 152.28641 181.58398 153.00781 C 180.68843 154.5886 155.20097 180.25198 154.11133 180.66992 C 152.47468 181.29778 136.09155 185.74509 135.00195 185.85742 C 134.24423 185.93528 133.48149 185.79284 132.82227 185.45117 C 130.8246 184.41524 129.98106 182.03767 130.76172 179.64844 C 130.91403 179.18393 132.11011 175.26236 133.42188 170.93359 C 134.7336 166.60498 135.97756 162.73473 136.18555 162.33398 C 136.39342 161.93332 142.37646 155.81575 149.48242 148.73828 C 163.7927 134.48561 163.92161 134.38217 168.22656 133.71289 C 168.80395 133.62313 169.37452 133.57291 169.9375 133.55859 z M 109.60156 135.26953 C 111.92201 135.25182 114.97464 135.26814 119.02344 135.29102 C 133.27502 135.37114 133.66902 135.38848 134.45312 135.97461 C 135.89883 137.05431 136.38086 137.96088 136.38086 139.59961 C 136.38086 141.2383 135.89861 142.14487 134.45312 143.22461 C 133.668 143.81078 133.28479 143.82761 118.73047 143.89844 L 103.8125 143.9707 L 102.67773 143.31641 C 100.47329 142.04433 99.82398 139.09814 101.29297 137.03516 C 102.26134 135.67512 102.64023 135.32266 109.60156 135.26953 z M 170.25195 142.28516 C 169.18396 142.27979 168.07282 142.68921 167.06641 143.51367 L 166.19141 144.22852 L 169.24805 147.30664 C 170.92861 148.99972 172.39675 150.38477 172.51172 150.38477 C 172.62699 150.38477 173.05508 149.94864 173.46289 149.41406 L 173.46289 149.41211 C 174.91869 147.50345 174.80486 145.16994 173.17773 143.54297 C 172.34444 142.70973 171.31995 142.29052 170.25195 142.28516 z M 159.98242 150.67578 C 159.86866 150.67578 156.19195 154.25909 151.8125 158.64062 L 143.84961 166.60742 L 142.75195 170.22852 C 142.147 172.21961 141.55717 174.1433 141.44141 174.50391 C 141.32613 174.86447 141.33691 175.16065 141.4707 175.16016 C 141.60181 175.15989 143.60976 174.62813 145.93359 173.98047 L 150.16016 172.80273 L 158.10352 164.875 C 162.47223 160.51429 166.04688 156.85958 166.04688 156.75391 C 166.04688 156.49312 160.24242 150.67578 159.98242 150.67578 z "
       transform="matrix(0.26458333,0,0,0.26458333,238.46691,112.29666)" />
  </g>
</svg>
