<?xml version="1.0" encoding="UTF-8" standalone="no"?>
<svg
   width="1080"
   height="1080"
   viewBox="0 0 285.75001 285.75001"
   version="1.1"
   id="svg3993"
   inkscape:version="1.1 (c68e22c387, 2021-05-23)"
   sodipodi:docname="Paypal.svg"
   xmlns:inkscape="http://www.inkscape.org/namespaces/inkscape"
   xmlns:sodipodi="http://sodipodi.sourceforge.net/DTD/sodipodi-0.dtd"
   xmlns="http://www.w3.org/2000/svg"
   xmlns:svg="http://www.w3.org/2000/svg"
   xmlns:rdf="http://www.w3.org/1999/02/22-rdf-syntax-ns#"
   xmlns:cc="http://creativecommons.org/ns#"
   xmlns:dc="http://purl.org/dc/elements/1.1/">
  <defs
     id="defs3987">
    <pattern
       id="EMFhbasepattern"
       patternUnits="userSpaceOnUse"
       width="6"
       height="6"
       x="0"
       y="0" />
  </defs>
  <sodipodi:namedview
     id="base"
     pagecolor="#bababa"
     bordercolor="#666666"
     borderopacity="1.0"
     inkscape:pageopacity="0"
     inkscape:pageshadow="2"
     inkscape:zoom="0.5"
     inkscape:cx="215"
     inkscape:cy="454"
     inkscape:document-units="mm"
     inkscape:current-layer="layer1"
     inkscape:document-rotation="0"
     showgrid="false"
     units="px"
     inkscape:pagecheckerboard="false"
     showborder="true"
     inkscape:showpageshadow="false"
     borderlayer="true"
     inkscape:window-width="2542"
     inkscape:window-height="1336"
     inkscape:window-x="3201"
     inkscape:window-y="16"
     inkscape:window-maximized="0" />
  <metadata
     id="metadata3990">
    <rdf:RDF>
      <cc:Work
         rdf:about="">
        <dc:format>image/svg+xml</dc:format>
        <dc:type
           rdf:resource="http://purl.org/dc/dcmitype/StillImage" />
      </cc:Work>
    </rdf:RDF>
  </metadata>
  <g
     inkscape:label="Layer 1"
     inkscape:groupmode="layer"
     id="layer1">
    <g
       id="g4982"
       transform="matrix(0.07478503,0,0,0.07478503,-259.95384,62.676022)"
       style="fill:#000000" />
    <path
       id="circle3931"
       style="fill:#ffffff;fill-opacity:1;stroke-width:12.6949"
       d="M 539.8418 0 C 241.67262 0.087413039 0.00012918069 241.82661 0 540 C -0.00029223282 838.23394 241.76606 1080.0001 540 1080 C 838.23379 1079.9999 1080.0003 838.23379 1080 540 C 1079.9998 241.76651 838.23349 0.00012524242 540 0 L 539.875 0 L 539.8418 0 z M 504.69141 306.26367 C 593.16977 306.0222 603.20555 306.27588 623.85742 309.25586 C 652.90196 313.44871 678.75785 324.04746 693.37695 337.75391 C 704.81853 348.48122 713.63819 362.33791 718.20117 376.75195 C 727.62523 406.52212 719.75136 458.26847 699.83008 497.46875 C 685.17175 526.31271 664.24598 547.44584 636.44336 561.48633 C 618.6224 570.48606 603.14953 575.26946 579.45117 579.10156 C 567.37396 581.05452 565.013 581.16841 527.57617 581.61719 L 488.35352 582.08789 C 473.22199 581.92726 473.31865 591.70108 472.03516 596.57422 C 471.17395 599.84396 469.43631 608.13007 465.13086 636.04102 C 464.10997 642.65912 462.75139 651.21775 462.11133 655.06055 C 461.47127 658.90331 460.23111 666.58997 459.35547 672.14062 C 458.4799 677.69128 456.73026 688.69473 455.4668 696.59375 C 454.20341 704.49274 452.25057 716.89579 451.12695 724.1543 C 450.00338 731.41284 448.66961 739.62122 448.16406 742.39648 L 447.24609 747.44141 L 397.94922 747.63867 C 349.07892 747.8337 348.62358 747.82217 345.33203 746.18945 C 343.11239 745.08863 341.34217 743.39874 339.99023 741.0918 C 337.33455 736.56018 337.20049 738.01353 344.37305 693.48828 C 345.71421 685.16232 347.4622 674.15688 348.25586 669.0332 C 349.04948 663.90949 350.79552 652.906 352.13672 644.58008 C 353.47792 636.25408 355.23019 625.25063 356.0293 620.12695 C 356.8284 615.00331 358.57868 603.99979 359.91992 595.67383 C 361.26113 587.34783 363.00089 576.34235 363.78711 571.21875 C 364.57333 566.09503 365.74352 558.75877 366.38672 554.91602 C 367.02996 551.07326 368.27236 543.38854 369.14648 537.83789 C 370.02054 532.28724 371.79094 521.10663 373.08203 512.99414 C 374.37312 504.88165 376.12106 493.88012 376.96484 488.54297 C 377.80862 483.20578 379.55458 472.20042 380.8457 464.08789 C 382.13679 455.97547 383.88275 444.97195 384.72656 439.63477 C 385.57034 434.29762 387.31825 423.29218 388.60938 415.17969 C 389.90042 407.0672 391.64735 396.06378 392.49219 390.72656 C 395.06351 374.48219 398.59604 352.31254 401.08984 336.77148 C 402.57531 327.5142 404.04595 320.86688 405.03906 318.91797 C 407.21051 314.65677 411.30938 310.57929 415.65625 308.35742 L 419.29688 306.49609 L 504.69141 306.26367 z M 744.68359 452.44336 L 747.67188 456.60156 C 753.09845 464.15143 757.77453 475.49209 760.20117 486.98828 C 761.93919 495.22255 762.17367 520.27395 760.61133 530.85156 C 755.77221 563.61387 743.82637 593.52616 727.35742 614.125 C 711.79148 633.59437 688.5484 648.98821 663.67578 656.30273 C 645.10976 661.76264 629.83136 663.91088 605.61328 664.46484 C 585.65322 664.92137 581.48447 665.59811 576.71289 669.1582 C 570.99636 673.42329 570.05798 676.55849 565.23633 707.46289 C 564.2038 714.08096 562.4521 725.08444 561.34375 731.91602 C 560.2354 738.74759 558.82202 747.65663 558.20312 751.71289 C 552.52215 788.94607 551.33187 793.48051 546.07031 797.92188 C 540.04658 803.00666 540.86382 802.91481 502.13281 802.93359 L 466.9707 802.95117 L 467.4043 800.42969 L 467.4043 800.42773 C 467.64241 799.04008 468.33158 794.58556 468.93555 790.5293 C 469.53952 786.47307 471.1266 776.34158 472.46289 768.01562 C 474.79535 753.48274 477.13192 738.65321 480.22656 718.7207 C 481.02196 713.59706 482.76813 702.59162 484.10938 694.26562 C 486.56773 679.00472 488.10366 669.23689 491.0625 650.01758 C 491.9499 644.25342 493.35879 635.34247 494.19531 630.21875 C 495.0318 625.09507 496.10008 618.42134 496.56836 615.38672 L 497.41992 609.86914 L 529.78125 609.41211 C 569.21831 608.85501 582.11116 607.56483 605.83594 601.80078 C 619.89056 598.38605 640.51463 590.82571 649.47461 585.80469 C 650.96903 584.96726 654.28781 583.13087 656.84961 581.72266 C 663.91377 577.83965 675.4895 569.68667 682.85742 563.4043 C 707.23462 542.61882 725.59129 514.08346 737.50977 478.45117 C 739.00929 473.9679 740.61223 468.728 741.07031 466.80664 C 741.52835 464.88528 742.52664 460.86772 743.29102 457.87891 L 744.68359 452.44336 z "
       transform="scale(0.26458333)" />
  </g>
</svg>
