<?xml version="1.0" encoding="UTF-8" standalone="no"?>
<svg
   width="1080"
   height="1080"
   viewBox="0 0 285.75001 285.75001"
   version="1.1"
   id="svg3993"
   inkscape:version="1.1 (c68e22c387, 2021-05-23)"
   sodipodi:docname="Publications.svg"
   xmlns:inkscape="http://www.inkscape.org/namespaces/inkscape"
   xmlns:sodipodi="http://sodipodi.sourceforge.net/DTD/sodipodi-0.dtd"
   xmlns="http://www.w3.org/2000/svg"
   xmlns:svg="http://www.w3.org/2000/svg"
   xmlns:rdf="http://www.w3.org/1999/02/22-rdf-syntax-ns#"
   xmlns:cc="http://creativecommons.org/ns#"
   xmlns:dc="http://purl.org/dc/elements/1.1/">
  <defs
     id="defs3987" />
  <sodipodi:namedview
     id="base"
     pagecolor="#bababa"
     bordercolor="#666666"
     borderopacity="1.0"
     inkscape:pageopacity="0"
     inkscape:pageshadow="2"
     inkscape:zoom="0.49497475"
     inkscape:cx="263.64981"
     inkscape:cy="477.80215"
     inkscape:document-units="mm"
     inkscape:current-layer="layer1"
     inkscape:document-rotation="0"
     showgrid="false"
     units="px"
     inkscape:pagecheckerboard="false"
     showborder="true"
     inkscape:showpageshadow="false"
     borderlayer="true"
     inkscape:window-width="1920"
     inkscape:window-height="1017"
     inkscape:window-x="-8"
     inkscape:window-y="1072"
     inkscape:window-maximized="1" />
  <metadata
     id="metadata3990">
    <rdf:RDF>
      <cc:Work
         rdf:about="">
        <dc:format>image/svg+xml</dc:format>
        <dc:type
           rdf:resource="http://purl.org/dc/dcmitype/StillImage" />
      </cc:Work>
    </rdf:RDF>
  </metadata>
  <g
     inkscape:label="Layer 1"
     inkscape:groupmode="layer"
     id="layer1">
    <path
       id="circle3953"
       style="fill:#ffffff;fill-opacity:1;stroke-width:3.35886"
       d="M 141.90762,-0.52606606 C 128.173,-0.43892189 114.44945,1.6085531 101.3026,5.5902743 86.077686,10.187803 71.642551,17.369278 58.772787,26.709923 44.97829,36.707048 32.981241,49.17599 23.525318,63.347388 15.028253,76.065413 8.5853928,90.155016 4.5506216,104.91063 c -3.62294043,13.21108 -5.30935221,26.94411 -5.05502382,40.63914 0.25104314,13.99884 2.54674482,27.96207 6.84111922,41.29012 4.89511,15.23482 12.390388,29.62367 22.038427,42.38736 10.213766,13.53051 22.837462,25.23623 37.104314,34.39358 12.66897,8.14342 26.633625,14.26967 41.212692,18.05408 14.63926,3.81161 29.88347,5.25325 44.98078,4.33792 14.35553,-0.86201 28.57962,-3.89824 42.02673,-9.00128 14.30921,-5.42002 27.72771,-13.1684 39.59534,-22.82497 12.72534,-10.34496 23.66779,-22.87794 32.18627,-36.89196 8.00185,-13.14441 13.86213,-27.59223 17.25494,-42.60364 3.66625,-16.16612 4.48167,-32.96785 2.47245,-49.41972 -1.79872,-14.7483 -5.92217,-29.211522 -12.18213,-42.686712 C 266.21822,67.897673 256.88702,54.390295 245.58666,42.799978 234.1779,31.086388 220.7612,21.330828 206.0856,14.11871 193.09756,7.7239092 179.12659,3.3316322 164.81696,1.1393175 157.24092,-0.02449314 149.5724,-0.57592875 141.90762,-0.52606606 Z m 0.61133,92.80983706 c 0.87449,0.02412 1.66892,0.427297 2.48703,0.689279 24.19734,8.53846 48.39607,17.07311 72.59254,25.61396 1.42844,0.51666 2.48855,1.89791 2.61927,3.41114 0.16429,1.50478 -0.60281,3.05972 -1.89642,3.84545 -0.64367,0.40086 -1.39356,0.57097 -2.09353,0.84521 -24.19873,8.60165 -48.39604,17.20745 -72.59566,25.8065 -0.94702,0.32587 -2.00155,0.25784 -2.92225,-0.12252 -24.54199,-8.726 -49.085564,-17.4477 -73.626573,-26.17638 -1.410412,-0.51431 -2.459321,-1.87157 -2.605577,-3.36513 -0.175609,-1.48174 0.548989,-3.02167 1.802506,-3.83076 0.664414,-0.44467 1.458386,-0.61583 2.194454,-0.90273 24.198246,-8.53637 48.39494,-17.07736 72.59415,-25.610824 0.46528,-0.155951 0.95998,-0.223187 1.45006,-0.203195 z m 66.68275,87.110449 c -10e-4,0.16239 -0.0457,0.34957 0.15901,0.3952 1.97867,1.10265 3.50536,2.99461 4.12831,5.17574 0.71815,2.43324 0.30215,5.17494 -1.12842,7.27349 -0.78932,1.18605 -1.88385,2.15255 -3.1282,2.84014 -0.0719,0.11529 -0.0105,0.30625 -0.0307,0.45088 -0.002,7.52267 0.005,15.04548 -0.004,22.56808 -0.0234,1.53552 -1.01211,2.99685 -2.42173,3.60159 -1.40382,0.63688 -3.15846,0.37375 -4.3092,-0.65379 -0.9353,-0.79952 -1.45252,-2.03925 -1.39728,-3.26525 0,-7.56106 0,-15.12211 0,-22.68317 -1.14493,-0.63332 -2.17079,-1.49163 -2.9433,-2.55166 -1.37147,-1.84111 -1.94819,-4.24019 -1.58395,-6.50499 0.37841,-2.51153 1.93647,-4.80523 4.11789,-6.10159 0.13646,-0.0815 0.27291,-0.16295 0.40936,-0.24443 0,-12.2468 0,-24.4936 0,-36.7404 2.7106,-0.96359 5.4212,-1.92718 8.1318,-2.89078 0,13.11031 0,26.22063 0,39.33094 z m -71.65093,-17.26768 c 3.11271,1.11623 6.61212,1.09884 9.71477,-0.0443 13.55693,-4.81973 27.11386,-9.63946 40.67079,-14.45919 -0.002,6.56082 0.005,13.12176 -0.004,19.68252 -0.0402,1.63154 -0.77114,3.17694 -1.80852,4.41142 -1.45529,1.73687 -3.37446,3.01105 -5.34952,4.08456 -2.87889,1.54013 -5.9608,2.66174 -9.07597,3.61866 -3.70658,1.12798 -7.49749,1.96609 -11.31883,2.59764 -1.06018,0.17254 -2.16663,0.33934 -3.24887,0.48084 -1.59513,0.21167 -3.24747,0.39153 -4.85097,0.53199 -2.28411,0.19995 -4.57428,0.32833 -6.86617,0.39277 -2.15632,0.0555 -4.37637,0.0544 -6.53273,-0.0127 -2.52789,-0.0766 -5.06854,-0.23846 -7.57142,-0.48188 -1.29594,-0.12684 -2.59219,-0.27554 -3.86902,-0.44595 -1.31167,-0.17471 -2.62147,-0.3751 -3.91203,-0.5976 -5.04446,-0.87642 -10.04223,-2.10975 -14.83305,-3.93093 -2.34533,-0.89864 -4.64767,-1.94787 -6.75403,-3.32529 -0.17535,-0.11543 -0.43045,-0.28932 -0.59935,-0.40902 -1.578633,-1.12648 -3.063501,-2.49784 -3.921587,-4.26598 -0.494548,-1.00115 -0.708774,-2.12593 -0.665827,-3.23914 0,-6.36399 0,-12.72797 0,-19.09196 13.598654,4.8345 27.197304,9.669 40.795954,14.50351 z" />
    <g
       id="g4982"
       transform="matrix(0.07478503,0,0,0.07478503,-259.95384,62.676022)"
       style="fill:#000000" />
  </g>
</svg>
