<?xml version="1.0" encoding="UTF-8" standalone="no"?>
<!-- Created with Inkscape (http://www.inkscape.org/) -->

<svg
   width="1080"
   height="1080"
   viewBox="0 0 285.74999 285.75001"
   version="1.1"
   id="svg5"
   inkscape:version="1.1 (c68e22c387, 2021-05-23)"
   sodipodi:docname="Nick.svg"
   xmlns:inkscape="http://www.inkscape.org/namespaces/inkscape"
   xmlns:sodipodi="http://sodipodi.sourceforge.net/DTD/sodipodi-0.dtd"
   xmlns="http://www.w3.org/2000/svg"
   xmlns:svg="http://www.w3.org/2000/svg">
  <sodipodi:namedview
     id="namedview7"
     pagecolor="#222222"
     bordercolor="#666666"
     borderopacity="1.0"
     inkscape:pageshadow="2"
     inkscape:pageopacity="0"
     inkscape:pagecheckerboard="0"
     inkscape:document-units="mm"
     showgrid="false"
     units="px"
     inkscape:showpageshadow="false"
     borderlayer="true"
     inkscape:zoom="0.788866"
     inkscape:cx="546.9877"
     inkscape:cy="595.15811"
     inkscape:window-width="1920"
     inkscape:window-height="1017"
     inkscape:window-x="-8"
     inkscape:window-y="1072"
     inkscape:window-maximized="1"
     inkscape:current-layer="layer1" />
  <defs
     id="defs2" />
  <g
     inkscape:label="Layer 1"
     inkscape:groupmode="layer"
     id="layer1">
    <path
       id="path986"
       style="font-style:normal;font-variant:normal;font-weight:normal;font-stretch:normal;font-size:25.5173px;line-height:1.25;font-family:baloo;-inkscape-font-specification:baloo;letter-spacing:0px;word-spacing:0px;opacity:1;fill:#ffffff;fill-opacity:1;stroke:none;stroke-width:15.661;stroke-linecap:round;stroke-linejoin:round"
       d="M 540 0 A 540 540 0 0 0 0 540 A 540 540 0 0 0 540 1080 A 540 540 0 0 0 1080 540 A 540 540 0 0 0 540 0 z M 271.74219 435.11719 C 277.87401 435.11719 282.62182 437.39199 285.98438 441.94141 L 393.98242 582.2793 L 393.98242 454.10547 C 393.98242 448.3692 395.56377 443.8196 398.72852 440.45703 C 402.09116 436.89668 406.44269 435.11719 411.7832 435.11719 C 417.32165 435.11719 421.67307 436.89668 424.83789 440.45703 C 428.20042 443.8196 429.88281 448.3692 429.88281 454.10547 L 429.88281 628.26758 C 429.88281 634.00377 428.20042 638.65445 424.83789 642.21484 C 421.47524 645.77527 417.12379 647.55469 411.7832 647.55469 C 405.45367 647.55469 400.60863 645.27985 397.24609 640.73047 L 288.95117 499.79688 L 288.95117 628.26758 C 288.95117 634.00377 287.36786 638.65445 284.20312 642.21484 C 281.03831 645.77527 276.68687 647.55469 271.14844 647.55469 C 265.61008 647.55469 261.25857 645.77527 258.09375 642.21484 C 254.92902 638.65445 253.34766 634.00377 253.34766 628.26758 L 253.34766 454.10547 C 253.34766 448.3692 255.02807 443.8196 258.39062 440.45703 C 261.75326 436.89668 266.20383 435.11719 271.74219 435.11719 z M 710.05078 435.11719 C 715.39129 435.11719 719.84195 436.60135 723.40234 439.56836 C 726.96281 442.53533 728.74414 446.8869 728.74414 452.62305 L 728.74414 564.18164 L 792.23633 503.35742 C 795.79668 499.79703 799.85097 498.01758 804.40039 498.01758 C 808.94981 498.01758 812.90696 499.69798 816.26953 503.06055 C 819.63206 506.42308 821.3125 510.37835 821.3125 514.92773 C 821.3125 519.47719 819.43196 523.63241 815.67383 527.39062 L 769.0918 570.70898 L 820.7207 616.99414 C 824.67673 620.75231 826.65234 625.00472 826.65234 629.75195 C 826.65234 634.30133 824.97202 638.35563 821.60938 641.91602 C 818.44455 645.47637 814.68558 647.25781 810.33398 647.25781 C 805.98239 647.25781 801.92997 645.47637 798.17188 641.91602 L 728.74414 579.01562 L 728.74414 629.75195 C 728.74414 635.48814 726.96281 639.83967 723.40234 642.80664 C 719.84195 645.77361 715.39129 647.25781 710.05078 647.25781 C 704.71016 647.25781 700.25961 645.77361 696.69922 642.80664 C 693.33657 639.83967 691.6543 635.48814 691.6543 629.75195 L 691.6543 452.62305 C 691.6543 446.8869 693.33657 442.53533 696.69922 439.56836 C 700.25961 436.60135 704.71016 435.11719 710.05078 435.11719 z M 613.24219 497.12695 C 620.95643 497.12695 628.6706 498.21674 636.38477 500.39258 C 644.29672 502.56838 651.22029 505.53288 657.1543 509.29102 C 663.48391 513.44487 666.64844 518.68804 666.64844 525.01758 C 666.64844 529.36914 665.56056 532.92812 663.38477 535.69727 C 661.40671 538.2687 658.73562 539.55469 655.37305 539.55469 C 653.19729 539.55469 650.9244 539.06129 648.55078 538.07227 C 646.17716 537.08331 643.80135 535.89639 641.42773 534.51172 C 637.07618 531.94032 632.92471 529.96272 628.96875 528.57812 C 625.01272 526.99571 620.46116 526.20312 615.31836 526.20312 C 603.05481 526.20312 593.56307 530.25742 586.83789 538.36719 C 580.31053 546.27917 577.04688 557.75235 577.04688 572.78516 C 577.04688 587.62007 580.31053 599.09332 586.83789 607.20312 C 593.56307 615.11515 603.05481 619.07031 615.31836 619.07031 C 620.26334 619.07031 624.61484 618.37881 628.37305 616.99414 C 632.32908 615.4118 636.68057 613.33511 641.42773 610.76367 C 644.39474 608.98344 646.96678 607.69543 649.14258 606.9043 C 651.31838 605.91527 653.49405 605.42383 655.66992 605.42383 C 658.83467 605.42383 661.50584 606.80703 663.68164 609.57617 C 665.8574 612.34536 666.94531 615.80712 666.94531 619.96094 C 666.94531 623.32351 666.15468 626.28993 664.57227 628.86133 C 663.18767 631.23487 660.81566 633.41062 657.45312 635.38867 C 651.3213 639.34463 644.19762 642.50919 636.08789 644.88281 C 627.97804 647.05861 619.67135 648.14648 611.16602 648.14648 C 596.72667 648.14648 583.96935 645.08101 572.89258 638.94922 C 562.01362 632.8175 553.60585 624.11444 547.67188 612.83984 C 541.73787 601.56532 538.77148 588.41171 538.77148 573.37891 C 538.77148 558.34621 541.83887 545.09351 547.9707 533.62109 C 554.30024 521.95093 563.1004 512.95063 574.375 506.62109 C 585.64952 500.29144 598.60502 497.12699 613.24219 497.12695 z M 489.84375 497.7207 C 495.18437 497.7207 499.63488 499.20495 503.19531 502.17188 C 506.75563 505.13888 508.53516 509.49045 508.53516 515.22656 L 508.53516 629.75195 C 508.53516 635.4881 506.75563 639.93865 503.19531 643.10352 C 499.63488 646.07044 495.18437 647.55469 489.84375 647.55469 C 484.5032 647.55469 480.05457 646.07044 476.49414 643.10352 C 473.13149 639.93865 471.44727 635.4881 471.44727 629.75195 L 471.44727 515.22656 C 471.44727 509.49045 473.13149 505.13888 476.49414 502.17188 C 480.05457 499.20495 484.5032 497.7207 489.84375 497.7207 z "
       transform="scale(0.26458333)" />
    <text
       xml:space="preserve"
       style="font-weight:600;font-size:10.5833px;line-height:1.25;font-family:Nunito;-inkscape-font-specification:'Nunito Semi-Bold';stroke-width:0.264583"
       x="45.69231"
       y="104.59255"
       id="text1574"><tspan
         sodipodi:role="line"
         id="tspan1572"
         style="stroke-width:0.264583"
         x="45.69231"
         y="104.59255" /></text>
    <path
       d="m 129.60454,124.70187 c -1.77939,0 -3.19241,-0.471 -4.2391,-1.41303 -1.04668,-0.99436 -1.57002,-2.27654 -1.57002,-3.84659 0,-1.57004 0.52334,-2.82605 1.57002,-3.76808 1.04669,-0.94202 2.45971,-1.41302 4.2391,-1.41302 1.72705,0 3.11388,0.471 4.16058,1.41302 1.09904,0.94203 1.64855,2.19804 1.64855,3.76808 0,1.57005 -0.52336,2.85223 -1.57005,3.84659 -1.04668,0.94203 -2.45971,1.41303 -4.23908,1.41303 z"
       style="font-style:normal;font-variant:normal;font-weight:bold;font-stretch:normal;font-size:25.5173px;line-height:1.25;font-family:nunito;-inkscape-font-specification:'nunito Bold';letter-spacing:0px;word-spacing:0px;fill:#ed7e48;fill-opacity:1;stroke:none;stroke-width:0.58876"
       id="path7791"
       sodipodi:nodetypes="scssscscs" />
  </g>
</svg>
