<?xml version="1.0" encoding="UTF-8" standalone="no"?>
<svg
   width="1080"
   height="1080"
   viewBox="0 0 285.75001 285.75001"
   version="1.1"
   id="svg3993"
   inkscape:version="1.1 (c68e22c387, 2021-05-23)"
   sodipodi:docname="Patreon.svg"
   xmlns:inkscape="http://www.inkscape.org/namespaces/inkscape"
   xmlns:sodipodi="http://sodipodi.sourceforge.net/DTD/sodipodi-0.dtd"
   xmlns="http://www.w3.org/2000/svg"
   xmlns:svg="http://www.w3.org/2000/svg"
   xmlns:rdf="http://www.w3.org/1999/02/22-rdf-syntax-ns#"
   xmlns:cc="http://creativecommons.org/ns#"
   xmlns:dc="http://purl.org/dc/elements/1.1/">
  <defs
     id="defs3987" />
  <sodipodi:namedview
     id="base"
     pagecolor="#bababa"
     bordercolor="#666666"
     borderopacity="1.0"
     inkscape:pageopacity="0"
     inkscape:pageshadow="2"
     inkscape:zoom="0.32"
     inkscape:cx="-214.0625"
     inkscape:cy="378.125"
     inkscape:document-units="mm"
     inkscape:current-layer="layer1"
     inkscape:document-rotation="0"
     showgrid="false"
     units="px"
     inkscape:pagecheckerboard="false"
     showborder="true"
     inkscape:showpageshadow="false"
     borderlayer="true"
     inkscape:window-width="2542"
     inkscape:window-height="1336"
     inkscape:window-x="3201"
     inkscape:window-y="16"
     inkscape:window-maximized="0" />
  <metadata
     id="metadata3990">
    <rdf:RDF>
      <cc:Work
         rdf:about="">
        <dc:format>image/svg+xml</dc:format>
        <dc:type
           rdf:resource="http://purl.org/dc/dcmitype/StillImage" />
      </cc:Work>
    </rdf:RDF>
  </metadata>
  <g
     inkscape:label="Layer 1"
     inkscape:groupmode="layer"
     id="layer1">
    <g
       id="g4982"
       transform="matrix(0.07478503,0,0,0.07478503,-259.95384,62.676022)"
       style="fill:#000000" />
    <path
       id="circle3931"
       style="fill:#ffffff;fill-opacity:1;stroke-width:12.6949"
       d="M 539.8418 0 C 241.67262 0.087413041 0.00012918069 241.82661 0 540 C -0.00029223282 838.23394 241.76606 1080.0001 540 1080 C 838.23379 1079.9999 1080.0003 838.23379 1080 540 C 1079.9998 241.76651 838.23349 0.00012524242 540 0 L 539.875 0 L 539.8418 0 z M 324.27344 333.4375 L 409.93555 333.4375 L 409.93555 801.21875 L 324.27344 801.21875 L 324.27344 333.4375 z M 636.64453 333.4375 C 733.08787 333.4375 811.55053 412.21943 811.54297 509.05273 C 811.54297 605.59355 733.08787 684.13867 636.64453 684.13867 C 539.90873 684.13867 461.20117 605.59355 461.20117 509.05273 C 461.20117 412.21943 539.90061 333.4375 636.64453 333.4375 z "
       transform="scale(0.26458333)" />
  </g>
</svg>
